<svg width="32" height="32" viewBox="0 0 32 32" xmlns="http://www.w3.org/2000/svg">
  <!-- Background circle -->
  <circle cx="16" cy="16" r="16" fill="#121212"/>

  <!-- Outer clock ring -->
  <circle cx="16" cy="16" r="14" fill="none" stroke="#1db954" stroke-width="1.5"/>

  <!-- Inner clock face -->
  <circle cx="16" cy="16" r="11" fill="#1a1a1a" stroke="#333" stroke-width="0.5"/>

  <!-- Hour markers (12, 3, 6, 9) -->
  <g stroke="#1db954" stroke-width="1.2" fill="#1db954">
    <!-- 12 o'clock -->
    <rect x="15.2" y="6" width="1.6" height="2.5" rx="0.2"/>
    <!-- 3 o'clock -->
    <rect x="23.5" y="15.2" width="2.5" height="1.6" rx="0.2"/>
    <!-- 6 o'clock -->
    <rect x="15.2" y="23.5" width="1.6" height="2.5" rx="0.2"/>
    <!-- 9 o'clock -->
    <rect x="6" y="15.2" width="2.5" height="1.6" rx="0.2"/>
  </g>

  <!-- Smaller hour markers -->
  <g stroke="#666" stroke-width="0.8" fill="#666">
    <circle cx="20.5" cy="8.8" r="0.6"/>
    <circle cx="23.2" cy="12" r="0.6"/>
    <circle cx="23.2" cy="20" r="0.6"/>
    <circle cx="20.5" cy="23.2" r="0.6"/>
    <circle cx="11.5" cy="23.2" r="0.6"/>
    <circle cx="8.8" cy="20" r="0.6"/>
    <circle cx="8.8" cy="12" r="0.6"/>
    <circle cx="11.5" cy="8.8" r="0.6"/>
  </g>

  <!-- Clock hands showing 10:10 -->
  <!-- Hour hand -->
  <line x1="16" y1="16" x2="12.5" y2="10.5" stroke="#1db954" stroke-width="2" stroke-linecap="round"/>

  <!-- Minute hand -->
  <line x1="16" y1="16" x2="20.5" y2="9" stroke="#1db954" stroke-width="1.5" stroke-linecap="round"/>

  <!-- Center hub -->
  <circle cx="16" cy="16" r="2" fill="#1db954"/>
  <circle cx="16" cy="16" r="1" fill="#121212"/>

  <!-- Vintage details -->
  <rect x="14.5" y="3" width="3" height="1.5" rx="0.5" fill="#666"/>
</svg>